<?xml version="1.0" encoding="UTF-8"?>
<svg width="153px" height="68px" viewBox="0 0 153 68" version="1.1" xmlns="http://www.w3.org/2000/svg" xmlns:xlink="http://www.w3.org/1999/xlink">
    <title>DAC</title>
    <defs>
        <linearGradient x1="50%" y1="0%" x2="50%" y2="100%" id="linearGradient-1">
            <stop stop-color="#FB4927" offset="0%"></stop>
            <stop stop-color="#FB8C57" offset="100%"></stop>
        </linearGradient>
        <linearGradient x1="50%" y1="0%" x2="50%" y2="100%" id="linearGradient-2">
            <stop stop-color="#FB8C57" offset="0%"></stop>
            <stop stop-color="#FB4927" offset="100%"></stop>
        </linearGradient>
        <linearGradient x1="80.9027778%" y1="50%" x2="21.1371528%" y2="50%" id="linearGradient-3">
            <stop stop-color="#FB7949" offset="0%"></stop>
            <stop stop-color="#FB5F36" offset="100%"></stop>
        </linearGradient>
    </defs>
    <g id="页面-2" stroke="none" stroke-width="1" fill="none" fill-rule="evenodd">
        <g id="DAC" fill-rule="nonzero">
            <path d="M59.5172763,0.0332361602 C66.8913703,-0.350508525 72.9471177,2.60110976 77.4896689,8.24826187 C80.9333868,12.5293801 83.3763195,18.1378091 85.1403044,24.9349616 L85.4070794,25.9916335 L85.5848981,26.7231984 L85.7534918,27.4390816 L85.9908992,28.4928572 L86.2122139,29.5354025 L86.3521983,30.2313205 L86.487103,30.9329377 L86.681749,32.0054035 L86.8696289,33.1147459 L87.0535408,34.275397 L87.2362826,35.5017888 L87.3588421,36.3630329 L87.5458515,37.7310639 L87.7391522,39.2033212 L88.0829001,41.9278957 C88.1069461,42.1220056 88.1312467,42.3187584 88.1558193,42.5182431 C88.7801348,47.586544 92.3793325,53.6965024 96.7118651,56.4020601 C101.532078,59.4121618 106.880723,58.287125 113.054524,51.1803166 L113.344527,50.8427968 L120.347028,57.5692697 C111.180309,68.3543443 100.88096,70.6415997 91.9317611,65.05305 C85.0085654,60.7296885 79.7895355,51.8699207 78.7980636,43.8209803 L78.4045733,40.6884744 L78.1640311,38.8636526 L77.9338942,37.212649 L77.7644992,36.0693893 L77.5950322,34.9926885 L77.4229538,33.9691691 L77.2457249,32.9854538 L77.060806,32.0281652 L76.8656579,31.083926 L76.6577412,30.1393586 L76.4345168,29.1810859 L76.1934452,28.1957303 C75.6471746,26.0106706 75.0402305,24.0170614 74.366094,22.2180201 L74.0730455,21.4589238 C70.9524424,13.6136832 66.4523362,9.71746261 59.9787067,10.0543475 C53.8133076,10.3751922 50.2582558,13.2522045 47.5880738,20.453478 L47.354722,21.1001516 L47.1256995,21.7695394 C47.0878753,21.8830119 47.0502204,21.997442 47.0127295,22.1128355 L46.7897071,22.8168006 C46.75285,22.9360697 46.7161457,23.0563133 46.679589,23.1775371 L46.4619741,23.9166869 C46.4259853,24.0418539 46.3901329,24.1680122 46.3544115,24.2951676 L46.1416115,25.0701093 L45.931692,25.8692497 L45.7243898,26.6928587 L45.5194414,27.5412061 L45.3165834,28.414562 L45.1155523,29.3131963 L44.9160849,30.2373787 L44.6192393,31.6721458 L44.3244301,33.1659146 L43.2384861,38.9103296 L42.9097692,40.5915487 L42.6793214,41.7309615 L42.4584733,42.7839286 L42.1724219,44.0809443 L41.9593027,44.9941489 L41.7432085,45.874003 L41.59563,46.4499103 L41.4439348,47.022794 L41.2870053,47.5973737 C37.8763601,59.903244 32.6209927,65.6842713 24.9667199,66.9395988 L24.4765723,67.0150096 L24.0012135,67.0775002 L23.5287348,67.1282073 L23.0472277,67.1682674 L22.5447834,67.1988173 L22.0094935,67.2209935 L21.1189229,67.2410434 L20.4494186,67.2472579 L19.7053885,67.2490768 C15.2909707,67.2490768 9.94507049,65.0299829 3.3834413,60.6981685 L2.43776474,60.0649771 C2.27876338,59.9570536 2.11906515,59.8479354 1.95866622,59.7376237 L0.987833571,59.0614448 C0.824616501,58.9463654 0.66069106,58.8300955 0.496053411,58.7126365 L0,58.3566937 L5.3004114,50.0553728 L5.71647535,50.3539969 L6.5349018,50.9317548 L7.33489638,51.4835864 L8.11626319,52.0095651 L8.87880633,52.5097642 C9.00431733,52.5909865 9.12903585,52.6711376 9.2529578,52.7502193 L9.9868981,53.2118864 L10.7015249,53.6479572 C10.8190091,53.7185068 10.9356803,53.7879928 11.0515346,53.8564169 L11.7368239,54.2542307 L12.4023101,54.6266315 C12.6208165,54.7465378 12.8359897,54.8622207 13.0477971,54.9736926 L13.673089,55.2954872 C13.8781321,55.3985492 14.0797766,55.4974123 14.2779901,55.5920888 L14.8623042,55.8635706 C16.8711482,56.7698828 18.498109,57.2159664 19.7053885,57.2159664 L20.5757835,57.2129777 L21.0749617,57.2070386 L21.5194678,57.1972412 L21.9180412,57.1829848 L22.4488948,57.1519252 L22.7708712,57.1238927 L23.0775027,57.0892983 L23.3775287,57.0475412 L23.5277957,57.0237888 C26.9181955,56.4677514 29.3492092,54.0580361 31.6186156,46.8490164 L31.8655844,46.0433976 C31.9887867,45.6309273 32.1115944,45.2038595 32.2341371,44.7617159 C32.3131351,44.4766853 32.3898403,44.1925649 32.4650674,43.9058491 L32.6871292,43.0344096 C32.723672,42.8867034 32.760049,42.7374719 32.796362,42.586277 L33.0142864,41.6520394 L33.2355626,40.6496436 L33.4858894,39.4567537 L33.774768,38.0170047 L34.2606862,35.491586 L34.9762179,31.6875914 L35.2141649,30.452644 L35.449683,29.2628182 L35.6835631,28.1163068 L35.9165958,27.0113026 C35.9554079,26.8304938 35.9942177,26.6513391 36.0330416,26.4738009 L36.2662861,25.4276687 L36.5006603,24.4185254 L36.736955,23.4445637 L36.975961,22.5039763 C37.4572115,20.6549709 37.9594744,18.9953676 38.5112185,17.4601038 L38.7913457,16.7025323 C39.5026315,14.8330015 40.2986452,13.1408078 41.2349897,11.4988759 C45.2377599,4.47979729 51.2526747,0.463322481 59.5172763,0.0332361602 Z" id="路径-2备份" fill="url(#linearGradient-1)"></path>
            <path d="M91.5172763,0.0332361602 C98.8913703,-0.350508525 104.947118,2.60110976 109.489669,8.24826187 C112.933387,12.5293801 115.37632,18.1378091 117.140304,24.9349616 L117.407079,25.9916335 L117.584898,26.7231984 L117.753492,27.4390816 L117.990899,28.4928572 L118.212214,29.5354025 L118.352198,30.2313205 L118.487103,30.9329377 L118.681749,32.0054035 L118.869629,33.1147459 L119.053541,34.275397 L119.236283,35.5017888 L119.358842,36.3630329 L119.545852,37.7310639 L119.739152,39.2033212 L120.0829,41.9278957 C120.106946,42.1220056 120.131247,42.3187584 120.155819,42.5182431 C120.780135,47.586544 124.379333,53.6965024 128.711865,56.4020601 C133.532078,59.4121618 138.880723,58.287125 145.054524,51.1803166 L145.344527,50.8427968 L152.347028,57.5692697 C143.180309,68.3543443 132.88096,70.6415997 123.931761,65.05305 C117.008565,60.7296885 111.789535,51.8699207 110.798064,43.8209803 L110.404573,40.6884744 L110.164031,38.8636526 L109.933894,37.212649 L109.764499,36.0693893 L109.595032,34.9926885 L109.422954,33.9691691 L109.245725,32.9854538 L109.060806,32.0281652 L108.865658,31.083926 L108.657741,30.1393586 L108.434517,29.1810859 L108.193445,28.1957303 C107.647175,26.0106706 107.04023,24.0170614 106.366094,22.2180201 L106.073046,21.4589238 C102.952442,13.6136832 98.4523362,9.71746261 91.9787067,10.0543475 C85.8133076,10.3751922 82.2582558,13.2522045 79.5880738,20.453478 L79.354722,21.1001516 L79.1256995,21.7695394 C79.0878753,21.8830119 79.0502204,21.997442 79.0127295,22.1128355 L78.7897071,22.8168006 C78.75285,22.9360697 78.7161457,23.0563133 78.679589,23.1775371 L78.4619741,23.9166869 C78.4259853,24.0418539 78.3901329,24.1680122 78.3544115,24.2951676 L78.1416115,25.0701093 L77.931692,25.8692497 L77.7243898,26.6928587 L77.5194414,27.5412061 L77.3165834,28.414562 L77.1155523,29.3131963 L76.9160849,30.2373787 L76.6192393,31.6721458 L76.3244301,33.1659146 L75.2384861,38.9103296 L74.9097692,40.5915487 L74.6793214,41.7309615 L74.4584733,42.7839286 L74.1724219,44.0809443 L73.9593027,44.9941489 L73.7432085,45.874003 L73.59563,46.4499103 L73.4439348,47.022794 L73.2870053,47.5973737 C69.8763601,59.903244 64.6209927,65.6842713 56.9667199,66.9395988 L56.4765723,67.0150096 L56.0012135,67.0775002 L55.5287348,67.1282073 L55.0472277,67.1682674 L54.5447834,67.1988173 L54.0094935,67.2209935 L53.1189229,67.2410434 L52.4494186,67.2472579 L51.7053885,67.2490768 C47.2909707,67.2490768 41.9450705,65.0299829 35.3834413,60.6981685 L34.4377647,60.0649771 C34.2787634,59.9570536 34.1190651,59.8479354 33.9586662,59.7376237 L32.9878336,59.0614448 C32.8246165,58.9463654 32.6606911,58.8300955 32.4960534,58.7126365 L32,58.3566937 L37.3004114,50.0553728 L37.7164754,50.3539969 L38.5349018,50.9317548 L39.3348964,51.4835864 L40.1162632,52.0095651 L40.8788063,52.5097642 C41.0043173,52.5909865 41.1290358,52.6711376 41.2529578,52.7502193 L41.9868981,53.2118864 L42.7015249,53.6479572 C42.8190091,53.7185068 42.9356803,53.7879928 43.0515346,53.8564169 L43.7368239,54.2542307 L44.4023101,54.6266315 C44.6208165,54.7465378 44.8359897,54.8622207 45.0477971,54.9736926 L45.673089,55.2954872 C45.8781321,55.3985492 46.0797766,55.4974123 46.2779901,55.5920888 L46.8623042,55.8635706 C48.8711482,56.7698828 50.498109,57.2159664 51.7053885,57.2159664 L52.5757835,57.2129777 L53.0749617,57.2070386 L53.5194678,57.1972412 L53.9180412,57.1829848 L54.4488948,57.1519252 L54.7708712,57.1238927 L55.0775027,57.0892983 L55.3775287,57.0475412 L55.5277957,57.0237888 C58.9181955,56.4677514 61.3492092,54.0580361 63.6186156,46.8490164 L63.8655844,46.0433976 C63.9887867,45.6309273 64.1115944,45.2038595 64.2341371,44.7617159 C64.3131351,44.4766853 64.3898403,44.1925649 64.4650674,43.9058491 L64.6871292,43.0344096 C64.723672,42.8867034 64.760049,42.7374719 64.796362,42.586277 L65.0142864,41.6520394 L65.2355626,40.6496436 L65.4858894,39.4567537 L65.774768,38.0170047 L66.2606862,35.491586 L66.9762179,31.6875914 L67.2141649,30.452644 L67.449683,29.2628182 L67.6835631,28.1163068 L67.9165958,27.0113026 C67.9554079,26.8304938 67.9942177,26.6513391 68.0330416,26.4738009 L68.2662861,25.4276687 L68.5006603,24.4185254 L68.736955,23.4445637 L68.975961,22.5039763 C69.4572115,20.6549709 69.9594744,18.9953676 70.5112185,17.4601038 L70.7913457,16.7025323 C71.5026315,14.8330015 72.2986452,13.1408078 73.2349897,11.4988759 C77.2377599,4.47979729 83.2526747,0.463322481 91.5172763,0.0332361602 Z" id="路径-2备份-4" fill="url(#linearGradient-2)"></path>
            <polygon id="路径-3" fill="url(#linearGradient-3)" points="79 40 81 50 72 50 75 40"></polygon>
        </g>
    </g>
</svg>